<svg xmlns="http://www.w3.org/2000/svg" width="244" height="76" xmlns:v="https://vecta.io/nano"><style><![CDATA[.B{fill:#9dadbb}.C{fill:#5fa2db}.D{fill:#6b7c8d}]]></style><path d="M0 0v76h244V0H0z" fill="#fbfcfc"/><path d="M12 12v1h4l-4-1m30 0v1h4l-4-1m37 0v1h13l-13-1m43 0v1h5l-5-1m38 0v1h10l-10-1M9 13l-1 5h1l2-5H9z" class="B"/><path d="M29 41c1.664 6.414 7.488 16.111 12.379 20.682 2.496 2.333 8.176 3.577 9.285-.83C52.87 52.078 38.544 39.58 35 32c4.627-2.239 10.759-7.235 12.953-11.999 1.652-3.587-.764-7.208-4.788-6.664C34.988 14.443 26.24 28.904 20 34c-.467-3.695-.962-7.265-1-11-.067-6.678-6.652-15.29-10.297-4.981C5.176 27.996 7.612 44.444 8.019 55c.144 3.75 1.385 8.487 6.002 8.624 6.948.205 4.261-9.488 5.412-13.584C20.68 45.602 24.883 42.451 29 41z" class="D"/><path d="M17 13l2 18h1c0-5.383 1.995-14.762-3-18m20 4l4-4-4 4m10-4c3.254 8.317-5.202 11.605-9 18 5.379-2.509 17.318-12.607 9-18m28.667.333l.667.333-.667-.333z" class="B"/><path d="M77 13l-3 1v1l4-1-1-1z" class="C"/><path d="M78 13.725c-16.51 4.633-23.103 27.835-12.856 41.684 6.002 8.111 18.52 10.237 27.856 7.83 30.495-7.861 16.935-58.475-15-49.514z" fill="#1376cc"/><path d="M92 13l12 7-12-7z" class="C"/><path d="M94.667 13.333l.667.333-.667-.333M120 13c-5.273 10.957-2.063 28.956-1.999 41 .025 4.747.585 11.252 6.987 10.793 6.181-.443 6.004-7.17 6.012-11.793.02-11.823 3.18-29.235-2-40h-1c2.514 13.54.967 28.253 1.076 42 .028 3.546-2.522 11.625-7.498 7.238-2.782-2.453-2.187-8.85-2.434-12.238-.831-11.444 3.289-26.348.856-37z" class="B"/><path d="M121.727 14.029c-3.111 2.407-2.71 8.508-2.726 11.972-.049 10.193-.358 20.487.291 30.664.244 3.839 2.619 9.177 7.429 6.292 4.02-2.41 2.38-8.168 2.294-11.957-.249-10.846 1.135-22.207-.124-32.981-.404-3.464-3.653-6.708-7.164-3.991z" class="D"/><path d="M140 44h1c.01-14.417 4.839-23.727 18-30-15.217-4.173-18.999 20.27-19 30z" class="B"/><path d="M159 13.753c-35.255 10.825-12.089 67.634 19.91 46.768 3.264-2.129 11.192-11.86 4.776-14.913-7.217-3.434-10.672 11.733-18.686 11.733-17.347 0-16.967-32.677-1.999-36.869 7.496-2.099 17.616 16.085 21.956 9.209C192.489 17.749 166.18 11.549 159 13.753z" class="D"/><path d="M172 13c5.273 6.646 16.475 7.82 12 19 10.395-6.43-5.21-17.789-12-19M65 20l9-5-9 5m32.667-5.667l.667.333-.667-.333M209 42c6.744 0 15.429 1.474 21.941-.318 5.061-1.392 3.555-5.747.059-7.682 3.414 7.139-3.453 6.998-9 7-9.989.005-17.379 1.399-13.682 13.852 1.699 5.724 16.011 2.964 20.681 3.167 1.894.083 6.853.54 5.655 3.721-1.18 3.136-7.111 2.258-9.654 2.259-7.19.003-23.943 3.281-27.258-5.019-3.411-8.545-.79-22.826-.741-31.981.019-3.727-.034-7.879 3.227-10.397 5.491-4.239 20.076-1.724 26.772-1.599 2.397.045 6.387-.025 7.387 2.799 1.039 2.933-3.699 3.111-5.391 3.178-5.289.207-13.856-1.751-18.678.622-3.84 1.89-2.965 10.084-.318 12.397l-1-11c4.705 0 29.502 2.874 27.248-5.857-.893-3.46-5.512-3.124-8.248-3.143-6.891-.047-24.183-3.075-29.566 1.603-3.101 2.694-2.433 7.73-2.434 11.397-.004 10.011-2.321 23.345.434 32.981C198.921 68.682 219.857 65.012 227 65c2.993-.005 9.029.716 10.029-3.213 2.358-9.262-21.156-3.887-24.881-5.405C207.399 54.446 209 46.069 209 42z" class="B"/><path d="M72 15l1 1-1-1z" class="C"/><path d="M99 15l1 1-1-1z" class="B"/><path d="M208 34c0-16.034 8.849-12.431 21.985-13.019 2.218-.099 6.88-1.241 4.164-4.397C231.215 13.176 221.074 15 217 15c-4.725 0-13.75-1.713-17.566 1.603-2.886 2.507-2.428 6.964-2.434 10.397-.016 9.299-2.864 24.322.742 32.941 3.072 7.34 21.677 4.062 28.258 4.059 2.471-.001 8.231.903 9.248-2.259 1.158-3.597-4.139-3.696-6.249-3.736-5.287-.1-18.841 2.637-20.681-4.063-5.09-18.534 13.451-9.292 22.434-13.545C239.984 36.027 220.028 34 218 34h-10z" class="D"/><path d="M70 16l1 1-1-1z" class="C"/><path d="M101 16l1 1-1-1m-65 1l1 1-1-1z" class="B"/><path d="M69 17l1 1-1-1z" class="C"/><path d="M102 17l1 1-1-1m-67 1l1 1-1-1z" class="B"/><path d="M67.667 18.333l.667.333-.667-.333z" class="C"/><path d="M103 18l1 1-1-1m-69 1l1 1-1-1z" class="B"/><path d="M66 19l1 1-1-1m12 3v1l11-2c-3.9-2.615-7.158-1.15-11 1z" class="C"/><path d="M104 19l1 1-1-1m52 7c7.399-4.716 10.167-4.634 18-1-4.5-7.337-14.254-6.499-18 1M31 23l3-3-3 3z" class="B"/><path d="M65 20l-1 3 1-3z" class="C"/><path d="M81 21v1l14 4c-3.735-4.727-8.129-6.273-14-5m24-1l2 4h1l-3-4m-41 1l1 1-1-1z" class="B"/><path d="M83.001 21.598C67.561 24.908 69.734 58.672 87 55.64c16.559-2.907 13.839-37.867-3.999-34.042z" fill="#fbfcfc"/><path d="M90 21l1 1-1-1m15 0l1 1-1-1z" class="C"/><path d="M63 22l-1 3 1-3m16 0l1 1-1-1z" class="B"/><path d="M92 22l1 1-1-1z" class="C"/><path d="M30 23l1 1-1-1z" class="B"/><path d="M76 23l-4 9h1l3-9z" class="C"/><path d="M77.667 23.333l.667.333-.667-.333z" class="B"/><path d="M93 23l1 1-1-1m13 0l1 1-1-1z" class="C"/><path d="M29 24l1 1-1-1z" class="B"/><path d="M63 24l1 1-1-1z" class="C"/><path d="M76 24l1 1-1-1z" class="B"/><path d="M94 24l1 1-1-1m13 0l1 5h1l-2-5z" class="C"/><path d="M28 25l1 1-1-1z" class="B"/><path d="M62 25c-2.197 9.613-2.197 17.387 0 27h1l-1-27m33 0l3 9h1l-4-9z" class="C"/><path d="M108 25l1 1-1-1m66 0l5 7-5-7M27 26l-5 6 5-6m34.333.667l.333.667-.333-.667M75 26l1 1-1-1m80 0l-1 4h1v-4m-80.667 1.667l.333.667-.333-.667M95 27l1 1-1-1m14 0l1 7h1l-2-7m-49 1v3h1l-1-3m36.333.667l.333.667-.333-.667m-23 2l.333.667-.333-.667M90 45c-1.152.451-2.699 1.363-4.029 1.218-15.695-1.713 4.119-25.448 4.83-7.242.068 1.733-.409 3.36-.801 5.025 5.013-6.618-3.064-19.295-9.258-10.852C75.879 39.778 82.558 52.562 90 45z" class="B"/><path d="M109 30v4h1l-1-4z" class="C"/><path d="M153 30v18h1l-1-18M20 31v3l2-1v-1l-2-1m17 0l1 1-1-1z" class="B"/><path d="M80 38h1l4-6c-3.511-.082-4.37 2.904-5 6z" class="C"/><path d="M85.093 32.176c-6.436.81-5.586 14.777.907 13.903 6.739-.907 6.18-14.795-.907-13.903z" fill="#1376cc"/><path d="M86.667 31.333l.667.333-.667-.333z" class="C"/><path d="M97 31v3h1l-1-3m-62 1l8 12-8-12m37 0v12h1l-1-12z" class="B"/><path d="M88 32l1 1-1-1z" class="C"/><path d="M179 32v1h5l-5-1z" class="B"/><path d="M89 33l1 1-1-1z" class="C"/><path d="M59 34v9h1l-1-9z" class="B"/><path d="M71 34v9h1l-1-9z" class="C"/><path d="M98 34l-3 16h1c2.419-4.819 4.172-10.821 2-16z" class="B"/><path d="M110 34l-1 14h1V34m-20 1l1 1-1-1m-10 5v3h1l-1-3z" class="C"/><path d="M24 44h5c-.798-3.705-3.532-2.969-5 0z" class="B"/><path d="M90 42l1 1-1-1m-8.667 1.667l.333.667-.333-.667M98 43v3h1l-1-3z" class="C"/><path d="M176 48h1c9.729-9.141 7.057 5.846 5 11 11.4-9.262-1.661-22.341-6-11M23 44l1 1-1-1m6 0l1 1-1-1m14 0c2.724 7.186 8.859 11.806 7 20 7.03-4.988-2.459-16.247-7-20z" class="B"/><path d="M72 44l4 8-4-8m17 0l1 1-1-1z" class="C"/><path d="M110 44v3h1l-1-3m-88 1l1 1-1-1m8 0l4 8h1l-5-8m43 0v3h1l-1-3z" class="B"/><path d="M82 45l1 1-1-1m6 0l1 1-1-1z" class="C"/><path d="M141 45l2 9h1l-3-9M20 46l-3 18 5-18h-2m40 0v3h1l-1-3z" class="B"/><path d="M83 46l1 1-1-1m4 0l1 1-1-1m10.333 1.667l.333.667-.333-.667z" class="C"/><path d="M74.333 48.667l.333.667-.333-.667M109 48l-4 9c2.842-2.445 5.049-5.163 4-9m45 0c1.96 9.684 14.979 13.598 20 4-9.13 5.414-13.158 3.552-20-4m21 0l-1 4h1v-4M61.333 49.667l.333.667-.333-.667z" class="B"/><path d="M96 49c-6.219 7.97-11.351 8.419-20 4 4.948 5.665 20.896 6.577 20-4m12.333.667l.334.667-.334-.667z" class="C"/><path d="M75 50l1 1-1-1m19 1l1 1-1-1z" class="B"/><path d="M107.333 51.667l.334.667-.334-.667z" class="C"/><path d="M62 52l1 1-1-1m14 0l1 1-1-1m17 0l1 1-1-1m-58 1l2 3-2-3z" class="B"/><path d="M63 53l1 1-1-1z" class="C"/><path d="M77 53l1 1-1-1m15 0l1 1-1-1m-29 1l1 1-1-1m15.667.333l.667.333-.667-.333M91 54l1 1-1-1z" class="B"/><path d="M106 54l1 1-1-1z" class="C"/><path d="M144 54c4.026 11.736 17.779 11 28 11v-1c-12.102 0-18.755-2.105-28-10z" class="B"/><path d="M64 55l5 5-5-5z" class="C"/><path d="M80.667 55.333l.667.333-.667-.333m8 0l.667.333-.667-.333z" class="B"/><path d="M105 55l1 1-1-1z" class="C"/><path d="M37 56l2 5h1l-3-5m27 0l1 1-1-1m19 0v1h5l-5-1m-18 1l1 1-1-1z" class="B"/><path d="M104 57l1 1-1-1z" class="C"/><path d="M66 58l1 1-1-1z" class="B"/><path d="M102 58l-2 3 2-3z" class="C"/><path d="M103 58l1 1-1-1m-36 1l1 1-1-1m35 0l1 1-1-1m70 4v1l10-5-10 4M8 60c1.435 4.543 4.583 4.893 9 5v-1l-9-4m60 0v1l7 3v-1l-7-3z" class="B"/><path d="M70 60l1 1-1-1z" class="C"/><path d="M101 60l1 1-1-1m-61 1l3 3-3-3z" class="B"/><path d="M71.667 61.333l.667.333-.667-.333M98 61l1 1-1-1z" class="C"/><path d="M99.667 61.333l.666.333-.666-.333z" class="B"/><path d="M73 62v1l6 1v-1l-6-1m19 1v1l5-1h-5z" class="C"/><path d="M97.667 62.333l.667.333-.667-.333m-2 1l.667.333-.667-.333M43 64v1h7l-7-1m35.667.333l.667.333-.667-.333z" class="B"/><path d="M80 64v1h11l-11-1z" class="C"/><path d="M91.667 64.333l.667.333-.667-.333M81 65l1 1-1-1m2 0l1 1-1-1m4 0v1h3l-3-1z" class="B"/></svg>